<svg width="8" height="12" viewBox="0 0 8 12" fill="none" xmlns="http://www.w3.org/2000/svg">
<path d="M4 11.6C2.95 11.6 2.10417 11.4469 1.4625 11.1406C0.820835 10.8344 0.500002 10.4334 0.500002 9.93752C0.500002 9.77225 0.541321 9.61353 0.62396 9.46138C0.706599 9.30923 0.830557 9.16655 0.995835 9.03336C1.12222 8.95558 1.25833 8.93614 1.40417 8.97502C1.55 9.01391 1.66181 9.09655 1.73958 9.22294C1.81736 9.34933 1.83681 9.48301 1.79792 9.62398C1.75903 9.76496 1.67639 9.87433 1.55 9.95211C1.62778 10.0882 1.92917 10.2219 2.45417 10.3531C2.97917 10.4844 3.49445 10.55 4 10.55C4.50556 10.55 5.02083 10.4844 5.54584 10.3531C6.07083 10.2219 6.37222 10.0882 6.45 9.95211C6.32361 9.87433 6.24097 9.76496 6.20209 9.62398C6.1632 9.48301 6.18264 9.34933 6.26042 9.22294C6.3382 9.09655 6.45 9.01391 6.59584 8.97502C6.74167 8.93614 6.87778 8.95558 7.00417 9.03336C7.16945 9.16655 7.2934 9.30923 7.37604 9.46138C7.45868 9.61353 7.5 9.77225 7.5 9.93752C7.5 10.4334 7.17917 10.8344 6.5375 11.1406C5.89583 11.4469 5.05 11.6 4 11.6ZM4.01459 8.53752C4.9382 7.85697 5.63333 7.1594 6.1 6.44482C6.56667 5.73023 6.8 5.02736 6.8 4.33621C6.8 3.38343 6.49861 2.66423 5.89584 2.17861C5.29306 1.69289 4.66111 1.45002 4 1.45002C3.33889 1.45002 2.70695 1.69357 2.10417 2.18065C1.50139 2.66764 1.2 3.38878 1.2 4.34409C1.2 4.97166 1.43333 5.63787 1.9 6.34273C2.36667 7.04759 3.07153 7.77919 4.01459 8.53752ZM4 9.60211C3.89306 9.60211 3.78611 9.58509 3.67917 9.55107C3.57222 9.51704 3.475 9.46114 3.3875 9.38336C2.29861 8.50836 1.48681 7.64551 0.952085 6.79482C0.417363 5.94412 0.150002 5.12605 0.150002 4.34059C0.150002 3.69221 0.266668 3.12371 0.500002 2.63507C0.733335 2.14643 1.03472 1.73683 1.40417 1.40627C1.77361 1.07572 2.18666 0.825372 2.64331 0.655233C3.09997 0.485094 3.55205 0.400024 3.99956 0.400024C4.44708 0.400024 4.89931 0.485094 5.35625 0.655233C5.8132 0.825372 6.22571 1.07567 6.59379 1.40613C6.96197 1.73659 7.26336 2.14735 7.49796 2.63842C7.73265 3.12949 7.85 3.69819 7.85 4.34452C7.85 5.12736 7.58264 5.94412 7.04792 6.79482C6.5132 7.64551 5.70139 8.50836 4.6125 9.38336C4.525 9.46114 4.42778 9.51704 4.32084 9.55107C4.21389 9.58509 4.10695 9.60211 4 9.60211ZM4.00306 5.30002C4.29269 5.30002 4.53958 5.19692 4.74375 4.99071C4.94792 4.7845 5.05 4.53659 5.05 4.24696C5.05 3.95734 4.9469 3.71044 4.74069 3.50627C4.53448 3.30211 4.28656 3.20002 3.99694 3.20002C3.70731 3.20002 3.46042 3.30454 3.25625 3.51357C3.05208 3.72259 2.95 3.96808 2.95 4.25002C2.95 4.53197 3.05311 4.77745 3.25931 4.98648C3.46552 5.19551 3.71344 5.30002 4.00306 5.30002Z" fill="#1C1B1F"/>
</svg>
